<?xml version="1.0" standalone="no"?>
<!DOCTYPE svg PUBLIC "-//W3C//DTD SVG 20010904//EN"
 "http://www.w3.org/TR/2001/REC-SVG-20010904/DTD/svg10.dtd">
<svg version="1.0" xmlns="http://www.w3.org/2000/svg"
 width="1150.000000pt" height="1150.000000pt" viewBox="0 0 1150.000000 1150.000000"
 preserveAspectRatio="xMidYMid meet">
<metadata>
Created by potrace 1.11, written by Peter Selinger 2001-2013
</metadata>
<g transform="translate(0.000000,1150.000000) scale(0.100000,-0.100000)"
fill="#000000" stroke="none">
<path d="M6424 9149 c-2 -4 -3 -61 -3 -128 1 -67 -2 -125 -5 -128 -3 -3 -1
-12 5 -19 7 -9 7 -19 0 -33 -7 -12 -7 -22 -1 -26 6 -3 6 -15 0 -29 -5 -15 -5
-27 2 -34 7 -7 6 -16 -1 -30 -7 -13 -7 -23 -1 -27 6 -3 6 -15 0 -29 -5 -15 -5
-27 2 -34 7 -7 6 -16 -1 -30 -7 -13 -7 -23 -1 -27 6 -3 6 -15 0 -29 -5 -15 -5
-27 2 -34 7 -7 6 -16 -1 -30 -7 -13 -7 -23 -1 -27 6 -3 6 -15 0 -29 -5 -15 -5
-27 2 -34 7 -7 6 -16 -1 -30 -7 -13 -7 -23 -1 -27 6 -3 6 -15 0 -29 -5 -15 -5
-27 2 -34 7 -7 6 -16 -1 -30 -7 -13 -7 -23 -1 -27 6 -3 6 -15 0 -29 -5 -15 -5
-27 2 -34 7 -7 6 -16 -1 -30 -7 -13 -7 -23 -1 -27 6 -3 6 -15 0 -29 -5 -15 -5
-27 2 -34 7 -7 6 -16 -1 -30 -7 -13 -7 -23 -1 -27 6 -3 6 -15 0 -29 -5 -15 -5
-27 2 -34 7 -7 6 -16 -1 -30 -7 -13 -7 -23 -1 -27 6 -3 6 -15 0 -29 -5 -15 -5
-27 2 -34 7 -7 6 -16 -1 -30 -7 -13 -7 -23 -1 -27 6 -3 6 -15 0 -29 -5 -13 -7
-26 -4 -28 2 -3 4 -283 4 -622 0 -487 3 -616 13 -610 11 6 147 106 172 126 6
5 80 60 165 124 85 63 162 121 171 128 8 7 42 32 75 56 32 24 65 50 72 57 7 7
21 13 29 13 9 0 14 3 10 6 -3 4 11 18 32 33 21 14 52 36 67 48 16 13 61 46 99
75 39 28 72 55 75 58 3 4 14 12 26 18 12 6 39 26 61 44 23 18 53 42 68 53 16
11 34 26 41 33 7 6 16 12 19 12 4 0 19 10 34 23 15 12 42 33 61 47 18 14 39
31 47 38 7 7 13 11 13 8 0 -3 8 2 18 12 10 9 29 24 42 32 12 8 28 20 34 26 6
5 38 30 71 54 33 24 98 73 145 109 l85 66 1590 1 c875 1 1596 2 1603 3 7 0 11
5 8 10 -4 5 -6 33 -6 63 0 29 0 89 0 133 -1 89 -1 80 0 190 1 45 1 85 -1 90
-1 6 -1 12 0 15 7 18 4 130 -2 130 -5 0 -6 4 -3 9 5 8 7 50 5 131 0 8 1 65 2
126 1 62 -2 117 -5 123 -4 6 -4 11 1 11 4 0 7 19 6 42 -3 63 -4 135 -3 281 0
31 -4 47 -12 48 -49 5 -4921 3 -4924 -2z"/>
<path d="M400 9013 c-1 -32 -1 -362 -1 -733 l0 -675 38 -33 c21 -18 69 -61
107 -95 38 -34 92 -82 120 -107 27 -25 57 -52 66 -60 9 -8 49 -44 90 -80 41
-36 84 -74 95 -85 11 -11 58 -54 105 -95 47 -41 90 -79 96 -85 6 -5 46 -41 89
-80 43 -38 101 -91 129 -116 28 -26 66 -59 84 -74 l32 -27 0 501 0 501 1912 2
1912 3 -324 260 c-179 143 -327 262 -330 265 -3 3 -50 41 -105 85 -55 43 -105
84 -112 90 -6 5 -27 22 -45 36 -78 62 -265 211 -283 227 -11 9 -42 34 -70 56
-27 22 -52 42 -55 45 -3 4 -21 18 -40 32 -19 15 -45 35 -56 45 -12 11 -36 30
-54 44 -18 14 -39 31 -46 38 -7 6 -15 12 -18 12 -3 0 -14 8 -24 18 -23 21 -54
47 -112 92 -25 19 -46 38 -48 42 -2 5 -712 8 -1578 8 l-1574 0 0 -57z"/>
<path d="M9750 7449 c-14 -11 -35 -29 -47 -39 -12 -10 -34 -27 -50 -37 -33
-21 -39 -26 -74 -56 -14 -12 -36 -29 -49 -37 -12 -8 -28 -19 -34 -25 -37 -33
-106 -85 -106 -81 0 3 -8 -2 -18 -11 -28 -26 -62 -53 -67 -53 -5 0 -45 -33
-71 -57 -7 -7 -16 -13 -19 -13 -4 0 -22 -12 -41 -27 -36 -30 -52 -43 -129
-100 -27 -20 -52 -39 -55 -42 -3 -4 -32 -26 -65 -50 -33 -25 -61 -48 -63 -53
-2 -4 -8 -8 -14 -8 -5 0 -33 -19 -62 -42 -29 -24 -65 -52 -80 -63 -25 -19
-189 -142 -246 -186 -14 -11 -52 -39 -85 -64 -33 -24 -70 -54 -82 -65 -13 -11
-23 -17 -23 -13 0 4 -4 3 -8 -2 -4 -6 -27 -26 -52 -45 -25 -19 -48 -39 -52
-45 -4 -5 -8 -7 -8 -2 0 4 -8 -1 -18 -10 -31 -29 -62 -53 -62 -48 0 3 -8 -3
-18 -12 -10 -10 -31 -27 -46 -38 -16 -11 -40 -29 -55 -41 -14 -11 -64 -49
-111 -85 -47 -35 -88 -68 -92 -74 -4 -5 -8 -6 -8 -2 0 5 -7 1 -16 -7 -9 -9
-32 -29 -52 -44 -21 -15 -43 -31 -49 -37 -27 -22 -63 -49 -173 -130 -63 -47
-124 -93 -135 -103 -11 -10 -36 -29 -55 -42 -19 -13 -41 -30 -48 -37 -7 -7
-16 -13 -20 -13 -4 0 -21 -14 -39 -30 -18 -17 -37 -30 -42 -30 -6 0 -11 -3
-11 -7 0 -5 -21 -21 -45 -38 -25 -16 -45 -33 -45 -37 0 -5 -6 -8 -14 -8 -8 0
-16 -4 -18 -8 -1 -5 -39 -35 -83 -68 -44 -32 -82 -61 -85 -64 -3 -3 -88 -68
-190 -145 -102 -76 -188 -144 -193 -149 -4 -6 -5 -19 -3 -28 2 -10 1 -20 -3
-22 -4 -3 -4 -29 -1 -60 3 -30 3 -63 -1 -73 -4 -10 -2 -23 3 -30 6 -7 5 -19
-1 -32 -7 -12 -7 -22 -1 -26 6 -3 6 -15 0 -29 -5 -15 -5 -27 2 -34 7 -7 6 -16
-1 -30 -7 -13 -7 -23 -1 -27 6 -3 6 -15 0 -29 -5 -15 -5 -27 2 -34 7 -7 6 -16
-1 -30 -7 -13 -7 -23 -1 -27 6 -3 6 -15 0 -29 -5 -15 -5 -27 2 -34 7 -7 6 -16
-1 -30 -7 -13 -7 -23 -1 -27 6 -3 6 -15 0 -29 -5 -15 -5 -27 2 -34 7 -7 6 -16
-1 -30 -7 -13 -7 -23 -1 -27 6 -3 6 -15 0 -29 -5 -15 -5 -27 2 -34 7 -7 6 -16
-1 -30 -7 -13 -7 -23 -1 -27 6 -3 6 -15 0 -29 -5 -15 -5 -27 2 -34 7 -7 6 -16
-1 -30 -7 -13 -7 -23 -1 -27 6 -3 6 -15 0 -29 -5 -15 -5 -27 2 -34 7 -7 6 -16
-1 -30 -7 -13 -7 -23 -1 -27 6 -3 6 -15 0 -29 -5 -15 -5 -27 2 -34 7 -7 6 -16
-1 -30 -7 -13 -7 -23 -1 -27 6 -3 6 -15 0 -29 -5 -15 -5 -27 2 -34 7 -7 6 -16
-1 -30 -7 -13 -7 -23 -1 -27 6 -3 6 -15 0 -29 -5 -15 -5 -27 2 -34 7 -7 6 -16
-1 -30 -7 -13 -7 -23 -1 -27 6 -3 6 -15 0 -29 -5 -15 -5 -27 2 -34 7 -7 6 -16
-1 -30 -7 -13 -7 -23 -1 -27 6 -3 6 -15 0 -29 -5 -15 -5 -27 2 -34 7 -7 6 -16
-1 -30 -7 -13 -7 -23 -1 -27 6 -3 6 -15 0 -29 -5 -15 -5 -27 2 -34 7 -7 6 -16
-1 -30 -7 -13 -7 -23 -1 -27 6 -3 6 -15 0 -29 -5 -15 -5 -27 2 -34 7 -7 6 -16
-1 -30 -7 -13 -7 -23 -1 -27 6 -3 6 -15 0 -29 -5 -15 -5 -27 2 -34 7 -7 6 -16
-1 -30 -7 -13 -7 -23 -1 -27 6 -3 6 -15 0 -29 -5 -15 -5 -27 2 -34 7 -7 6 -16
-1 -30 -7 -13 -7 -23 -1 -27 6 -3 6 -15 0 -29 -5 -15 -5 -27 2 -34 7 -7 6 -16
-1 -30 -7 -13 -7 -23 -1 -27 6 -3 6 -15 0 -29 -5 -13 -7 -26 -4 -29 3 -2 5
-106 5 -231 0 -227 0 -233 34 -226 5 1 97 1 205 0 223 -1 283 0 288 5 2 2 15
0 28 -5 13 -5 24 -6 24 -2 0 4 19 6 43 4 51 -4 47 -4 122 -2 33 1 65 1 70 0 6
-1 15 -1 20 0 6 1 42 1 80 0 39 0 75 -1 80 -1 6 0 37 0 70 1 33 1 65 1 70 0 6
-1 15 -2 20 -1 8 2 254 1 320 0 6 0 37 0 70 1 33 1 65 1 70 0 6 -1 15 -1 20 0
6 1 37 2 70 0 l60 -1 0 1178 c-1 648 1 1185 3 1194 2 10 28 34 58 54 30 21 54
42 54 47 0 5 5 6 10 3 6 -3 13 1 16 9 3 9 12 16 20 16 7 0 20 10 29 23 8 12
18 21 20 19 3 -1 11 2 18 8 13 11 70 54 109 82 45 33 71 53 89 71 11 9 19 14
19 10 0 -3 9 4 20 17 11 13 20 19 20 14 1 -5 10 2 20 15 11 13 20 20 20 16 0
-5 8 2 19 13 10 12 22 22 25 22 4 0 14 6 21 13 33 29 45 37 45 32 0 -3 11 5
24 19 13 15 26 26 30 26 4 0 13 6 21 13 7 6 25 21 41 32 15 11 42 32 60 48 17
15 35 27 39 27 3 0 13 7 21 15 8 8 41 33 74 56 33 23 60 46 60 51 0 5 5 6 10
3 6 -3 10 -1 10 4 0 6 7 11 16 11 8 0 13 4 10 9 -3 5 8 14 24 21 17 7 30 17
30 22 0 5 8 12 18 15 18 7 21 9 63 46 14 12 36 29 49 37 12 8 28 21 36 28 7 6
15 12 19 12 4 0 12 6 19 13 7 6 28 23 46 37 19 14 42 33 52 43 10 9 21 18 26
18 10 2 76 52 80 62 2 4 10 7 17 7 7 0 15 7 19 15 3 8 12 15 21 15 8 0 15 4
15 8 0 8 95 82 105 82 3 0 17 12 30 26 14 15 25 23 25 19 0 -5 9 1 20 13 12
12 24 22 28 22 4 0 22 14 41 30 18 17 37 30 40 30 3 0 19 11 34 25 15 14 27
23 27 20 0 -3 14 8 30 25 17 17 34 29 39 26 5 -3 11 1 14 8 3 8 39 37 79 65
40 28 107 75 148 106 41 30 111 81 155 112 44 31 98 71 121 87 22 17 84 63
137 101 53 39 96 72 96 75 0 4 -62 56 -177 147 -22 17 -81 64 -182 146 -8 7
-60 48 -115 92 -55 43 -116 93 -136 110 -20 16 -51 41 -69 55 -19 14 -38 30
-44 35 -6 6 -34 28 -61 50 -28 21 -52 42 -55 45 -3 3 -21 17 -42 32 -20 15
-42 34 -50 41 -7 7 -31 26 -53 42 -22 17 -53 42 -70 57 -100 89 -97 88 -135
57z"/>
<path d="M2097 6112 l-28 -3 21 -19 c43 -38 174 -156 200 -180 14 -14 43 -39
63 -56 60 -51 218 -195 272 -249 27 -27 81 -77 118 -109 38 -33 81 -71 97 -85
31 -29 134 -121 166 -148 24 -20 155 -137 191 -170 13 -12 56 -50 95 -85 39
-35 82 -72 94 -83 12 -11 44 -39 71 -61 26 -23 75 -67 108 -97 l60 -56 913 -1
c501 0 912 2 912 4 0 2 -156 129 -347 282 -192 153 -355 284 -363 291 -8 7
-44 36 -80 64 -36 28 -81 64 -100 80 -19 15 -66 53 -105 84 -38 31 -79 64 -90
73 -11 10 -99 80 -195 157 -96 77 -177 142 -180 145 -3 3 -25 21 -50 40 -55
42 -66 52 -153 125 l-69 57 -796 2 c-439 0 -810 0 -825 -2z"/>
<path d="M400 5574 c-1 -132 -1 -3363 0 -3436 l0 -58 2446 0 2446 0 -34 27
c-18 15 -35 30 -38 33 -3 3 -23 18 -45 35 -22 16 -47 36 -55 45 -8 8 -33 28
-55 45 -22 16 -42 32 -45 35 -3 3 -25 21 -50 40 -25 19 -47 37 -50 41 -3 3
-25 21 -50 40 -25 19 -54 42 -65 51 -46 39 -204 165 -235 188 -18 14 -38 30
-44 35 -19 17 -109 89 -146 117 -19 14 -44 34 -55 44 -11 11 -38 32 -60 48
-22 17 -42 33 -45 36 -3 3 -25 21 -50 40 -25 19 -54 42 -65 52 -21 17 -92 74
-235 188 -45 36 -114 91 -153 123 -84 68 -90 73 -138 110 l-36 27 -1046 0
-1047 0 0 621 c0 611 0 622 -20 639 -35 30 -192 172 -260 235 -36 33 -83 76
-104 95 -22 19 -54 49 -71 65 -18 17 -52 48 -76 69 -24 22 -71 64 -105 95 -33
31 -98 90 -144 131 -85 77 -112 102 -190 173 -87 80 -80 82 -80 -29z"/>
</g>
</svg>
